<svg xmlns="http://www.w3.org/2000/svg" xmlns:xlink="http://www.w3.org/1999/xlink" viewBox="-20 -20 88 88">
    <path fill="rgba(255, 255, 255,0.8)" d="M26,24v-9h-4v9h-5l7,9l7-9H26z"/>
    <path fill="rgba(195, 195, 195,0.2)" d="M22.119,39.88l-0.47,3.984C22.418,43.955,23.207,44,23.997,44v-4C23.361,40,22.736,39.952,22.119,39.88z"/>
    <path fill="rgba(237, 237, 237,0.2)" d="M18.627,8.944L17.282,5.16c-1.402,0.493-2.747,1.155-4.013,1.957l2.164,3.386C16.429,9.869,17.499,9.347,18.627,8.944z"/>
    <path fill="rgba(225, 225, 225,0.2)" d="M12.645,12.732L9.799,9.917c-1.044,1.053-1.982,2.229-2.771,3.495l3.41,2.129C11.072,14.525,11.805,13.578,12.645,12.732z"/>
    <path fill="rgba(213, 213, 213,0.2)" d="M8.9,18.749l-3.797-1.315c-0.485,1.398-0.822,2.862-0.979,4.346l3.981,0.439C8.238,21.015,8.514,19.857,8.9,18.749z"/>
    <path fill="rgba(204, 204, 204,0.2)" d="M8.106,25.79l-3.982,0.451c0.156,1.476,0.493,2.94,0.987,4.35l3.793-1.328C8.517,28.154,8.24,26.995,8.106,25.79z"/>
    <path fill="rgba(195, 195, 195,0.2)" d="M10.449 32.479l-3.41 2.129c.789 1.266 1.727 2.434 2.78 3.495l2.834-2.826C11.816 34.435 11.084 33.491 10.449 32.479zM15.44 37.502l-2.15 3.394c1.254.798 2.603 1.451 4.013 1.957l1.347-3.789C17.515 38.661 16.44 38.137 15.44 37.502zM23.997 8V4c-.781 0-1.571.045-2.348.136l.466 3.985C22.733 8.048 23.359 8 23.997 8zM23.997 4v4C23.998 8 23.999 8 24 8c8.837 0 16 7.163 16 16s-7.163 16-16 16c-.001 0-.002 0-.003 0v4c11.028 0 20-8.972 20-20S35.025 4 23.997 4z"/>
</svg>