  <svg xmlns="http://www.w3.org/2000/svg" viewBox="3.9921875 1.369140625 16.015625 21.58203125">
      <path d="M9.5683594 1.3691406L9.1132812 2.4023438L8.4082031 3.9960938L5.5488281 4.2558594L6.1523438 7.0625L3.9921875 8.953125L6.1308594 10.869141L5.4941406 13.669922L7 13.824219L7 22.951172L12 20.451172L17 22.951172L17 13.875L18.451172 13.744141L17.847656 10.9375L20.007812 9.046875L17.869141 7.1308594L18.505859 4.3300781L15.648438 4.0371094L14.517578 1.3984375L12.035156 2.8398438L9.5683594 1.3691406 z M10.484375 4.2441406L12.021484 5.1601562L13.570312 4.2617188L14.275391 5.90625L16.056641 6.0898438L15.658203 7.8339844L16.990234 9.0292969L15.644531 10.207031L16.021484 11.957031L14.238281 12.119141L13.515625 13.755859L11.978516 12.839844L10.429688 13.738281L9.7246094 12.09375L7.9433594 11.910156L8.3417969 10.166016L7.0097656 8.9707031L8.3554688 7.7929688L7.9785156 6.0429688L9.7617188 5.8808594L10.484375 4.2441406 z M11.964844 15.160156L14.431641 16.630859L15 15.34375L15 19.714844L12 18.214844L9 19.714844L9 15.476562L9.4824219 16.601562L11.964844 15.160156 z"></path>
  </svg>