  <svg xmlns="http://www.w3.org/2000/svg" viewBox="2 2 20 20">
      <path d="M2 2C2 4.856 2.4537344 7.0244844 2.9277344 8.5214844C2.3377344 9.7334844 2 11.077 2 12.5C2 17.747 8 22 12 22C16 22 22 17.747 22 12.5C22 11.077 21.662266 9.7334844 21.072266 8.5214844C21.546266 7.0244844 22 4.856 22 2C19.456 2.424 17.637906 3.20675 16.378906 3.96875C15.054906 3.35475 13.573 3 12 3C10.427 3 8.9450937 3.35475 7.6210938 3.96875C6.3620937 3.20675 4.544 2.424 2 2 z M4.140625 4.5722656C5.041625 4.8702656 5.8589375 5.2396875 6.5859375 5.6796875L7.4960938 6.2324219L8.4648438 5.7832031C9.5838437 5.2642031 10.773 5 12 5C13.227 5 14.417109 5.2642031 15.537109 5.7832031L16.503906 6.2324219L17.416016 5.6796875C18.142016 5.2396875 18.958375 4.8702656 19.859375 4.5722656C19.724375 5.7652656 19.492062 6.8820625 19.164062 7.9140625L18.923828 8.6777344L19.273438 9.3964844C19.756438 10.387484 20 11.431 20 12.5C20 16.495 15.014 20 12 20C8.986 20 4 16.495 4 12.5C4 11.431 4.2435625 10.387484 4.7265625 9.3964844L5.0761719 8.6777344L4.8359375 7.9160156C4.5079375 6.8830156 4.275625 5.7652656 4.140625 4.5722656 z M7.5 10C6.5 10 6 10.375 6 10.375C6 10.375 6 13 8.5 13C9.5 13 10 12.625 10 12.625C10 12.625 10 10 7.5 10 z M16.5 10C14 10 14 12.625 14 12.625C14 12.625 14.5 13 15.5 13C18 13 18 10.375 18 10.375C18 10.375 17.5 10 16.5 10 z M10 15C10 16 12 17 12 17C12 17 14 16 14 15L12 15L10 15 z"></path>
  </svg>