  <svg xmlns="http://www.w3.org/2000/svg" viewBox="2 2 20 20">
      <path d="M6 2C6 2 6.0828271 3.6684904 6.9785156 5.09375C4.1615554 5.5830603 2 8.0486775 2 11C2 18 7.8 22 10 22C10.7 22 11.4 21.800391 12 21.400391C12.6 21.700391 13.3 22 14 22C16.2 22 22 17 22 11C22 7.7 19.3 5 16 5C14.921687 5 13.900656 5.3194376 13 5.828125L13 2L11 2L11 5.3398438C10.762365 4.7424903 10.418964 4.118183 9.9003906 3.5996094C8.4003906 2.0996094 6 2 6 2 z M8 7C9 7 9.8992188 7.4 10.699219 8L12 9.1992188L13.300781 8C14.100781 7.4 15 7 16 7C18.2 7 20 8.8 20 11C20 16 15.1 19.9 14 20C13.7 20 13.3 19.899219 13 19.699219L12 19.099609L11 19.699219C10.7 19.899219 10.3 20 10 20C8.9 20 4 16.9 4 11C4 8.8 5.8 7 8 7 z M10 11.025391C9.925 11.025391 9.8507813 11.049609 9.8007812 11.099609C9.5007812 11.499609 9 12.2 9 13C9 13.8 9.5007813 14.500391 9.8007812 14.900391C9.9007813 15.000391 10.099219 15.000391 10.199219 14.900391C10.499219 14.500391 11 13.8 11 13C11 12.2 10.499219 11.499609 10.199219 11.099609C10.149219 11.049609 10.075 11.025391 10 11.025391 z M14 11.025391C13.925 11.025391 13.850781 11.049609 13.800781 11.099609C13.500781 11.499609 13 12.2 13 13C13 13.8 13.500781 14.500391 13.800781 14.900391C13.900781 15.000391 14.099219 15.000391 14.199219 14.900391C14.499219 14.500391 15 13.8 15 13C15 12.2 14.499219 11.499609 14.199219 11.099609C14.149219 11.049609 14.075 11.025391 14 11.025391 z"></path>
  </svg>