  <svg xmlns="http://www.w3.org/2000/svg" viewBox="4 2 19.8330173492432 22">
      <path d="M6 2C4.897 2 4 2.897 4 4L4 20C4 21.103 4.897 22 6 22L12.683594 22C12.387594 21.378 12.181078 20.707 12.080078 20L6 20L6 4L13 4L13 9L18 9L18 12.078125C18.327 12.031125 18.66 11.998047 19 11.998047C19.34 11.998047 19.673 12.031125 20 12.078125L20 8L14 2L6 2 z M18.064453 14C17.935453 14 17.8275 14.096609 17.8125 14.224609L17.695312 15.236328C17.211312 15.404328 16.773531 15.660281 16.394531 15.988281L15.457031 15.582031C15.339031 15.531031 15.202672 15.578453 15.138672 15.689453L14.201172 17.310547C14.137172 17.421547 14.166531 17.563625 14.269531 17.640625L15.076172 18.240234C15.028172 18.487234 15 18.74 15 19C15 19.26 15.028172 19.512766 15.076172 19.759766L14.269531 20.359375C14.166531 20.436375 14.136172 20.578453 14.201172 20.689453L15.138672 22.310547C15.202672 22.422547 15.339031 22.467016 15.457031 22.416016L16.394531 22.011719C16.773531 22.340719 17.211312 22.595672 17.695312 22.763672L17.8125 23.775391C17.8275 23.903391 17.935453 24 18.064453 24L19.935547 24C20.064547 24 20.1725 23.903391 20.1875 23.775391L20.304688 22.763672C20.788688 22.595672 21.226469 22.339719 21.605469 22.011719L22.542969 22.417969C22.660969 22.468969 22.797328 22.421547 22.861328 22.310547L23.798828 20.689453C23.862828 20.577453 23.833469 20.435375 23.730469 20.359375L22.923828 19.759766C22.971828 19.512766 23 19.26 23 19C23 18.74 22.971828 18.487234 22.923828 18.240234L23.730469 17.640625C23.833469 17.563625 23.863828 17.421547 23.798828 17.310547L22.861328 15.689453C22.797328 15.578453 22.660969 15.531031 22.542969 15.582031L21.605469 15.988281C21.226469 15.660281 20.788688 15.404328 20.304688 15.236328L20.1875 14.224609C20.1725 14.096609 20.064547 14 19.935547 14L18.064453 14 z M19 17C20.104 17 21 17.895 21 19C21 20.104 20.104 21 19 21C17.896 21 17 20.104 17 19C17 17.895 17.896 17 19 17 z"></path>
  </svg>