  <svg xmlns="http://www.w3.org/2000/svg" viewBox="2 2 20 20">
      <path d="M4 2L4 7L9 7L7.4375 5.4375C8.7316965 4.5353856 10.297977 4 12 4C16.430666 4 20 7.5693339 20 12L22 12C22 6.4886661 17.511334 2 12 2C9.7532162 2 7.6716357 2.7446772 6 4L4 2 z M12 7C9.791 7 8 8.791 8 11C8 14 12 18 12 18C12 18 16 14 16 11C16 8.791 14.209 7 12 7 z M12 9C13.103 9 14 9.897 14 11C14 12.024 13.053953 13.610844 12.001953 14.964844C10.956953 13.614844 10 12.015 10 11C10 9.897 10.897 9 12 9 z M2 12C2 17.511334 6.4886661 22 12 22C14.246784 22 16.328364 21.255323 18 20L20 22L20 17L15 17L16.5625 18.5625C15.268304 19.464614 13.702023 20 12 20C7.5693339 20 4 16.430666 4 12L2 12 z"></path>
  </svg>