<svg xmlns="http://www.w3.org/2000/svg" viewBox="0 0 24 24">
  <path d="M3 2L3 18.5C3 20.43 4.346 22 6 22L19 22C20.654 22 22 20.43 22 18.5C22 16.57 20.654 15 19 15L19 2L16 2C16 2.552 15.552 3 15 3C14.448 3 14 2.552 14 2L12 2C12 2.552 11.552 3 11 3C10.448 3 10 2.552 10 2L8 2C8 2.552 7.552 3 7 3C6.448 3 6 2.552 6 2L3 2 z M 6 6L16 6L16 8L6 8L6 6 z M 6 10L13 10L13 12L6 12L6 10 z M 6 17C6.532 17 7 17.701 7 18.5C7 19.299 6.532 20 6 20C5.468 20 5 19.299 5 18.5C5 17.701 5.468 17 6 17 z M 8.6992188 17L19 17C19.532 17 20 17.701 20 18.5C20 19.299 19.532 20 19 20L8.6992188 20C8.8864357 19.543644 9 19.038795 9 18.5C9 17.961 8.8862187 17.456 8.6992188 17 z" fill="#FFFFFF" />
</svg>